External Loads File
version=1
nRows=31
nColumns=13
Range=5.000000e-03-10 seconds
endheader
time 	forceRightX 	forceRightY 	forceRightZ 	pointRightX 	pointRightY 	pointRightZ 	forceLeftX 	forceLeftY 	forceLeftZ 	pointLeftX 	pointLeftY 	pointLeftZ 		
7.505000 88.485171 -1.055744 -0.000000 0.148262 0.259407 -0.106941 -285.111506 717.210314 -0.000000 0.429169 0.365696 -0.362609
7.510000 88.707901 2.471688 -0.000000 0.146574 0.269252 -0.106895 -289.516701 738.499494 -0.000000 0.432039 0.355126 -0.362517
7.515000 88.564921 4.665471 -0.000000 0.145530 0.279167 -0.106884 -292.531307 760.552208 -0.000000 0.434290 0.344300 -0.362352
7.520000 87.868324 5.302587 -0.000000 0.145160 0.289253 -0.106822 -294.107546 783.438666 -0.000000 0.436024 0.333243 -0.362165
7.525000 86.334120 4.160171 -0.000000 0.145409 0.299546 -0.106838 -294.566998 807.077947 -0.000000 0.437376 0.322142 -0.361730
7.530000 83.546132 1.133302 -0.000000 0.146266 0.309727 -0.106778 -294.569391 831.142119 -0.000000 0.438133 0.310997 -0.361768
7.535000 79.038631 -3.964890 -0.000000 0.147835 0.320184 -0.106882 -292.181457 856.023708 -0.000000 0.438414 0.299703 -0.361732
7.540000 72.434549 -10.831802 -0.000000 0.150043 0.330599 -0.107013 -288.303334 880.882177 -0.000000 0.438014 0.288538 -0.361827
7.545000 63.578242 -19.127794 -0.000000 0.152951 0.340914 -0.107351 -282.683865 905.051161 -0.000000 0.436970 0.277655 -0.361638
7.550000 52.504628 -28.502780 -0.000000 0.156300 0.351228 -0.107661 -273.379263 928.112021 -0.000000 0.435228 0.266752 -0.361552
7.555000 39.482257 -38.374149 -0.000000 0.160109 0.361593 -0.108033 -260.290259 948.848813 -0.000000 0.432809 0.256090 -0.361490
7.560000 24.939347 -48.172257 -0.000000 0.164679 0.372094 -0.108301 -242.604370 966.173329 -0.000000 0.429918 0.245685 -0.361425
7.565000 9.602525 -57.298733 -0.000000 0.169470 0.382019 -0.108748 -222.779592 978.197970 -0.000000 0.426568 0.235494 -0.361390
7.570000 -5.951185 -65.359421 -0.000000 0.174690 0.391913 -0.109159 -198.974701 984.230792 -0.000000 0.422655 0.225554 -0.361369
7.575000 -20.995700 -71.967817 -0.000000 0.180391 0.401361 -0.109489 -172.652322 982.999254 -0.000000 0.418323 0.215833 -0.361370
7.580000 -35.018471 -76.791481 -0.000000 0.186919 0.410627 -0.109752 -143.702050 973.912397 -0.000000 0.413535 0.206697 -0.361308
7.585000 -47.472011 -79.600567 -0.000000 0.193113 0.419571 -0.110100 -114.574153 956.384202 -0.000000 0.408152 0.197908 -0.361150
7.590000 -58.120901 -80.128503 -0.000000 0.199777 0.427940 -0.110548 -85.628458 930.566409 -0.000000 0.402454 0.189557 -0.361022
7.595000 -66.875781 -78.150940 -0.000000 0.206561 0.436102 -0.111121 -57.365177 896.885569 -0.000000 0.396327 0.181703 -0.361014
7.600000 -73.944551 -73.412460 -0.000000 0.214443 0.443970 -0.110761 -28.442651 856.111309 -0.000000 0.389696 0.174409 -0.360893
7.605000 -79.150490 -66.293444 -0.000000 0.221920 0.451300 -0.111922 -3.177297 808.956973 -0.000000 0.382810 0.167450 -0.360758
7.610000 -82.801159 -57.017723 -0.000000 0.229554 0.457691 -0.112123 18.521420 756.569546 -0.000000 0.375672 0.161110 -0.360684
7.615000 -85.403585 -45.634642 -0.000000 0.237879 0.463908 -0.112449 38.863487 700.012699 -0.000000 0.368212 0.155323 -0.360526
7.620000 -87.142152 -32.627569 -0.000000 0.246456 0.469457 -0.112803 56.388714 640.502170 -0.000000 0.360484 0.149980 -0.360378
7.625000 -88.233783 -18.335806 -0.000000 0.255403 0.474405 -0.113090 71.488726 579.317478 -0.000000 0.352408 0.145352 -0.360268
7.630000 -88.748635 -3.416595 -0.000000 0.263781 0.478782 -0.113219 83.020319 517.971462 -0.000000 0.344042 0.141457 -0.360053
7.635000 -88.793311 11.958670 -0.000000 0.272417 0.482475 -0.113497 93.071875 457.528753 -0.000000 0.335235 0.138322 -0.359824
7.640000 -88.412863 27.466668 -0.000000 0.281034 0.485687 -0.113604 101.767832 399.166158 -0.000000 0.325998 0.135874 -0.359643
7.645000 -87.719336 43.101080 -0.000000 0.289652 0.488266 -0.113743 109.470116 343.784848 -0.000000 0.316380 0.134124 -0.359411
7.650000 -86.849647 59.174551 -0.000000 0.298219 0.490126 -0.113883 116.402259 291.919111 -0.000000 0.306404 0.132934 -0.359207
7.655000 -85.978479 76.185863 -0.000000 0.306581 0.491401 -0.114017 122.359947 243.860919 -0.000000 0.296325 0.132620 -0.358888
